<svg xmlns="http://www.w3.org/2000/svg" viewBox="0 0 900 900" role="img" aria-labelledby="title desc">
  <title id="title">ClayPod Bluetooth Speaker</title><desc id="desc">A compact pebble-shaped ceramic Bluetooth speaker with linen mesh.</desc>
  <defs><linearGradient id="bg" x2="1" y2="1"><stop stop-color="#ece4d8"/><stop offset="1" stop-color="#b8a188"/><pattern id="mesh" width="12" height="12" patternUnits="userSpaceOnUse"><path d="M0 2h12M0 8h12M2 0v12M8 0v12" stroke="#847260" stroke-width="1.8" opacity=".65"/></pattern></defs>
  <rect width="900" height="900" fill="url(#bg)"/><ellipse cx="450" cy="696" rx="270" ry="54" fill="#6c5544" opacity=".25"/>
  <path d="M220 490Q225 300 450 285Q675 300 680 490Q675 670 450 695Q225 670 220 490Z" fill="#d1c0aa" stroke="#806a58" stroke-width="14"/>
  <path d="M280 486Q280 355 450 346Q620 355 620 486Q620 615 450 630Q280 615 280 486Z" fill="url(#mesh)" stroke="#766252" stroke-width="11"/>
  <circle cx="450" cy="486" r="75" fill="#9b8069" opacity=".7"/><circle cx="450" cy="486" r="52" fill="none" stroke="#e0d0bc" stroke-width="8"/><circle cx="600" cy="404" r="11" fill="#556e5d"/>
</svg>
